<svg width="1062" height="781" viewBox="0 0 1062 781" fill="none" xmlns="http://www.w3.org/2000/svg">
<g clip-path="url(#clip0_2_2)">
<rect width="1062" height="781" fill="white"/>
<path d="M340.202 459V440.818H346.345C347.772 440.818 348.938 441.076 349.843 441.591C350.754 442.1 351.429 442.789 351.867 443.659C352.305 444.529 352.524 445.5 352.524 446.571C352.524 447.642 352.305 448.616 351.867 449.492C351.435 450.368 350.766 451.066 349.861 451.587C348.955 452.102 347.795 452.359 346.381 452.359H341.977V450.406H346.31C347.286 450.406 348.07 450.238 348.662 449.9C349.254 449.563 349.683 449.107 349.95 448.533C350.222 447.953 350.358 447.299 350.358 446.571C350.358 445.843 350.222 445.192 349.95 444.618C349.683 444.044 349.251 443.594 348.653 443.268C348.056 442.937 347.263 442.771 346.274 442.771H342.403V459H340.202ZM357.882 440.818V459H355.787V440.818H357.882ZM367.437 459.284C366.123 459.284 364.989 458.994 364.036 458.414C363.09 457.828 362.359 457.011 361.844 455.964C361.335 454.91 361.08 453.685 361.08 452.288C361.08 450.892 361.335 449.661 361.844 448.595C362.359 447.524 363.075 446.689 363.992 446.092C364.915 445.488 365.993 445.186 367.224 445.186C367.934 445.186 368.635 445.304 369.328 445.541C370.02 445.778 370.65 446.163 371.219 446.695C371.787 447.222 372.24 447.92 372.577 448.79C372.914 449.661 373.083 450.732 373.083 452.004V452.892H362.572V451.081H370.952C370.952 450.312 370.798 449.625 370.491 449.021C370.189 448.418 369.757 447.941 369.195 447.592C368.638 447.243 367.981 447.068 367.224 447.068C366.389 447.068 365.667 447.275 365.057 447.69C364.454 448.098 363.989 448.631 363.664 449.288C363.338 449.945 363.175 450.649 363.175 451.401V452.608C363.175 453.638 363.353 454.511 363.708 455.227C364.069 455.937 364.569 456.479 365.208 456.852C365.848 457.219 366.59 457.402 367.437 457.402C367.987 457.402 368.484 457.325 368.928 457.171C369.378 457.011 369.766 456.775 370.091 456.461C370.417 456.141 370.668 455.745 370.846 455.271L372.87 455.839C372.657 456.526 372.299 457.13 371.796 457.651C371.293 458.165 370.671 458.568 369.931 458.858C369.192 459.142 368.36 459.284 367.437 459.284ZM380.283 459.32C379.419 459.32 378.635 459.157 377.93 458.831C377.226 458.5 376.667 458.023 376.252 457.402C375.838 456.775 375.631 456.017 375.631 455.129C375.631 454.348 375.785 453.715 376.093 453.229C376.4 452.738 376.812 452.353 377.327 452.075C377.842 451.797 378.41 451.59 379.031 451.454C379.659 451.312 380.289 451.199 380.922 451.116C381.751 451.01 382.422 450.93 382.937 450.877C383.458 450.818 383.837 450.72 384.074 450.584C384.316 450.448 384.438 450.211 384.438 449.874V449.803C384.438 448.927 384.198 448.246 383.719 447.761C383.245 447.275 382.526 447.033 381.561 447.033C380.561 447.033 379.777 447.252 379.209 447.69C378.641 448.128 378.241 448.595 378.01 449.092L376.022 448.382C376.377 447.554 376.85 446.908 377.442 446.447C378.04 445.979 378.691 445.654 379.395 445.47C380.105 445.281 380.804 445.186 381.49 445.186C381.928 445.186 382.431 445.239 383 445.346C383.574 445.446 384.127 445.657 384.66 445.976C385.198 446.296 385.645 446.778 386 447.423C386.355 448.068 386.533 448.933 386.533 450.016V459H384.438V457.153H384.331C384.189 457.449 383.952 457.766 383.621 458.103C383.29 458.441 382.849 458.728 382.298 458.964C381.748 459.201 381.076 459.32 380.283 459.32ZM380.603 457.438C381.431 457.438 382.13 457.275 382.698 456.949C383.272 456.624 383.704 456.203 383.994 455.689C384.29 455.174 384.438 454.632 384.438 454.064V452.146C384.349 452.253 384.154 452.35 383.852 452.439C383.556 452.522 383.213 452.596 382.822 452.661C382.437 452.72 382.061 452.774 381.695 452.821C381.333 452.862 381.041 452.898 380.816 452.928C380.271 452.999 379.762 453.114 379.289 453.274C378.821 453.428 378.442 453.661 378.152 453.975C377.868 454.283 377.726 454.703 377.726 455.236C377.726 455.964 377.995 456.514 378.534 456.887C379.079 457.254 379.768 457.438 380.603 457.438ZM400.016 448.418L398.134 448.95C398.016 448.637 397.841 448.332 397.61 448.036C397.385 447.734 397.078 447.485 396.687 447.29C396.296 447.095 395.796 446.997 395.187 446.997C394.352 446.997 393.657 447.19 393.1 447.574C392.55 447.953 392.275 448.435 392.275 449.021C392.275 449.542 392.464 449.953 392.843 450.255C393.222 450.557 393.814 450.809 394.618 451.01L396.643 451.507C397.862 451.803 398.77 452.256 399.368 452.865C399.966 453.469 400.265 454.247 400.265 455.2C400.265 455.982 400.04 456.68 399.59 457.295C399.146 457.911 398.525 458.396 397.726 458.751C396.927 459.107 395.997 459.284 394.938 459.284C393.547 459.284 392.396 458.982 391.485 458.379C390.573 457.775 389.996 456.893 389.753 455.733L391.742 455.236C391.931 455.97 392.289 456.52 392.816 456.887C393.349 457.254 394.044 457.438 394.903 457.438C395.879 457.438 396.654 457.23 397.229 456.816C397.809 456.396 398.099 455.893 398.099 455.307C398.099 454.833 397.933 454.437 397.601 454.117C397.27 453.792 396.761 453.549 396.074 453.389L393.802 452.857C392.553 452.561 391.635 452.102 391.05 451.48C390.47 450.853 390.18 450.069 390.18 449.128C390.18 448.358 390.396 447.678 390.828 447.086C391.266 446.494 391.86 446.029 392.612 445.692C393.37 445.355 394.228 445.186 395.187 445.186C396.536 445.186 397.595 445.482 398.365 446.074C399.14 446.666 399.691 447.447 400.016 448.418ZM409.136 459.284C407.822 459.284 406.689 458.994 405.736 458.414C404.789 457.828 404.058 457.011 403.543 455.964C403.034 454.91 402.779 453.685 402.779 452.288C402.779 450.892 403.034 449.661 403.543 448.595C404.058 447.524 404.774 446.689 405.691 446.092C406.615 445.488 407.692 445.186 408.923 445.186C409.633 445.186 410.334 445.304 411.027 445.541C411.719 445.778 412.35 446.163 412.918 446.695C413.486 447.222 413.939 447.92 414.276 448.79C414.614 449.661 414.782 450.732 414.782 452.004V452.892H404.271V451.081H412.652C412.652 450.312 412.498 449.625 412.19 449.021C411.888 448.418 411.456 447.941 410.894 447.592C410.337 447.243 409.68 447.068 408.923 447.068C408.088 447.068 407.366 447.275 406.757 447.69C406.153 448.098 405.688 448.631 405.363 449.288C405.037 449.945 404.875 450.649 404.875 451.401V452.608C404.875 453.638 405.052 454.511 405.407 455.227C405.768 455.937 406.268 456.479 406.908 456.852C407.547 457.219 408.29 457.402 409.136 457.402C409.686 457.402 410.184 457.325 410.627 457.171C411.077 457.011 411.465 456.775 411.79 456.461C412.116 456.141 412.367 455.745 412.545 455.271L414.569 455.839C414.356 456.526 413.998 457.13 413.495 457.651C412.992 458.165 412.37 458.568 411.631 458.858C410.891 459.142 410.059 459.284 409.136 459.284ZM434.66 448.418L432.778 448.95C432.659 448.637 432.485 448.332 432.254 448.036C432.029 447.734 431.721 447.485 431.331 447.29C430.94 447.095 430.44 446.997 429.83 446.997C428.996 446.997 428.3 447.19 427.744 447.574C427.193 447.953 426.918 448.435 426.918 449.021C426.918 449.542 427.108 449.953 427.486 450.255C427.865 450.557 428.457 450.809 429.262 451.01L431.286 451.507C432.505 451.803 433.414 452.256 434.012 452.865C434.609 453.469 434.908 454.247 434.908 455.2C434.908 455.982 434.683 456.68 434.234 457.295C433.79 457.911 433.168 458.396 432.369 458.751C431.57 459.107 430.641 459.284 429.582 459.284C428.191 459.284 427.04 458.982 426.128 458.379C425.217 457.775 424.64 456.893 424.397 455.733L426.386 455.236C426.575 455.97 426.933 456.52 427.46 456.887C427.992 457.254 428.688 457.438 429.546 457.438C430.523 457.438 431.298 457.23 431.872 456.816C432.452 456.396 432.742 455.893 432.742 455.307C432.742 454.833 432.576 454.437 432.245 454.117C431.914 453.792 431.405 453.549 430.718 453.389L428.445 452.857C427.196 452.561 426.279 452.102 425.693 451.48C425.113 450.853 424.823 450.069 424.823 449.128C424.823 448.358 425.039 447.678 425.471 447.086C425.909 446.494 426.504 446.029 427.256 445.692C428.013 445.355 428.871 445.186 429.83 445.186C431.18 445.186 432.239 445.482 433.008 446.074C433.784 446.666 434.334 447.447 434.66 448.418ZM443.779 459.284C442.466 459.284 441.332 458.994 440.379 458.414C439.432 457.828 438.701 457.011 438.186 455.964C437.677 454.91 437.423 453.685 437.423 452.288C437.423 450.892 437.677 449.661 438.186 448.595C438.701 447.524 439.417 446.689 440.335 446.092C441.258 445.488 442.335 445.186 443.566 445.186C444.277 445.186 444.978 445.304 445.67 445.541C446.363 445.778 446.993 446.163 447.561 446.695C448.13 447.222 448.582 447.92 448.92 448.79C449.257 449.661 449.426 450.732 449.426 452.004V452.892H438.914V451.081H447.295C447.295 450.312 447.141 449.625 446.833 449.021C446.532 448.418 446.1 447.941 445.537 447.592C444.981 447.243 444.324 447.068 443.566 447.068C442.732 447.068 442.01 447.275 441.4 447.69C440.797 448.098 440.332 448.631 440.006 449.288C439.681 449.945 439.518 450.649 439.518 451.401V452.608C439.518 453.638 439.696 454.511 440.051 455.227C440.412 455.937 440.912 456.479 441.551 456.852C442.19 457.219 442.933 457.402 443.779 457.402C444.33 457.402 444.827 457.325 445.271 457.171C445.721 457.011 446.108 456.775 446.434 456.461C446.759 456.141 447.011 455.745 447.189 455.271L449.213 455.839C449 456.526 448.642 457.13 448.138 457.651C447.635 458.165 447.014 458.568 446.274 458.858C445.534 459.142 444.703 459.284 443.779 459.284ZM454.708 440.818V459H452.613V440.818H454.708ZM464.263 459.284C462.949 459.284 461.816 458.994 460.863 458.414C459.916 457.828 459.185 457.011 458.67 455.964C458.161 454.91 457.906 453.685 457.906 452.288C457.906 450.892 458.161 449.661 458.67 448.595C459.185 447.524 459.901 446.689 460.818 446.092C461.742 445.488 462.819 445.186 464.05 445.186C464.76 445.186 465.461 445.304 466.154 445.541C466.846 445.778 467.477 446.163 468.045 446.695C468.613 447.222 469.066 447.92 469.403 448.79C469.741 449.661 469.909 450.732 469.909 452.004V452.892H459.398V451.081H467.778C467.778 450.312 467.625 449.625 467.317 449.021C467.015 448.418 466.583 447.941 466.021 447.592C465.464 447.243 464.807 447.068 464.05 447.068C463.215 447.068 462.493 447.275 461.884 447.69C461.28 448.098 460.815 448.631 460.49 449.288C460.164 449.945 460.002 450.649 460.002 451.401V452.608C460.002 453.638 460.179 454.511 460.534 455.227C460.895 455.937 461.395 456.479 462.035 456.852C462.674 457.219 463.417 457.402 464.263 457.402C464.813 457.402 465.31 457.325 465.754 457.171C466.204 457.011 466.592 456.775 466.917 456.461C467.243 456.141 467.494 455.745 467.672 455.271L469.696 455.839C469.483 456.526 469.125 457.13 468.622 457.651C468.119 458.165 467.497 458.568 466.758 458.858C466.018 459.142 465.186 459.284 464.263 459.284ZM478.636 459.284C477.358 459.284 476.257 458.982 475.334 458.379C474.41 457.775 473.7 456.943 473.203 455.884C472.706 454.824 472.457 453.614 472.457 452.253C472.457 450.868 472.712 449.646 473.221 448.586C473.736 447.521 474.452 446.689 475.369 446.092C476.292 445.488 477.37 445.186 478.601 445.186C479.559 445.186 480.424 445.364 481.193 445.719C481.962 446.074 482.593 446.571 483.084 447.21C483.575 447.849 483.88 448.595 483.998 449.447H481.903C481.743 448.826 481.388 448.276 480.838 447.796C480.293 447.311 479.559 447.068 478.636 447.068C477.819 447.068 477.103 447.281 476.488 447.707C475.878 448.128 475.402 448.722 475.058 449.492C474.721 450.255 474.552 451.152 474.552 452.182C474.552 453.235 474.718 454.153 475.049 454.934C475.387 455.715 475.86 456.322 476.47 456.754C477.085 457.186 477.807 457.402 478.636 457.402C479.181 457.402 479.675 457.307 480.119 457.118C480.563 456.929 480.938 456.656 481.246 456.301C481.554 455.946 481.773 455.52 481.903 455.023H483.998C483.88 455.828 483.587 456.553 483.119 457.198C482.658 457.837 482.045 458.346 481.282 458.725C480.524 459.098 479.642 459.284 478.636 459.284ZM492.992 445.364V447.139H485.925V445.364H492.992ZM487.984 442.097H490.08V455.094C490.08 455.686 490.165 456.129 490.337 456.425C490.515 456.715 490.74 456.911 491.012 457.011C491.29 457.106 491.583 457.153 491.891 457.153C492.122 457.153 492.311 457.142 492.459 457.118C492.607 457.088 492.725 457.065 492.814 457.047L493.24 458.929C493.098 458.982 492.9 459.036 492.645 459.089C492.391 459.148 492.068 459.178 491.678 459.178C491.086 459.178 490.506 459.05 489.938 458.796C489.375 458.541 488.908 458.154 488.535 457.633C488.168 457.112 487.984 456.455 487.984 455.662V442.097ZM507.187 459.32C506.323 459.32 505.539 459.157 504.835 458.831C504.13 458.5 503.571 458.023 503.157 457.402C502.742 456.775 502.535 456.017 502.535 455.129C502.535 454.348 502.689 453.715 502.997 453.229C503.305 452.738 503.716 452.353 504.231 452.075C504.746 451.797 505.314 451.59 505.935 451.454C506.563 451.312 507.193 451.199 507.826 451.116C508.655 451.01 509.327 450.93 509.842 450.877C510.363 450.818 510.741 450.72 510.978 450.584C511.221 450.448 511.342 450.211 511.342 449.874V449.803C511.342 448.927 511.102 448.246 510.623 447.761C510.149 447.275 509.43 447.033 508.466 447.033C507.465 447.033 506.681 447.252 506.113 447.69C505.545 448.128 505.145 448.595 504.915 449.092L502.926 448.382C503.281 447.554 503.754 446.908 504.346 446.447C504.944 445.979 505.595 445.654 506.299 445.47C507.01 445.281 507.708 445.186 508.395 445.186C508.833 445.186 509.336 445.239 509.904 445.346C510.478 445.446 511.031 445.657 511.564 445.976C512.103 446.296 512.549 446.778 512.905 447.423C513.26 448.068 513.437 448.933 513.437 450.016V459H511.342V457.153H511.236C511.093 457.449 510.857 457.766 510.525 458.103C510.194 458.441 509.753 458.728 509.203 458.964C508.652 459.201 507.98 459.32 507.187 459.32ZM507.507 457.438C508.335 457.438 509.034 457.275 509.602 456.949C510.176 456.624 510.608 456.203 510.898 455.689C511.194 455.174 511.342 454.632 511.342 454.064V452.146C511.253 452.253 511.058 452.35 510.756 452.439C510.46 452.522 510.117 452.596 509.726 452.661C509.342 452.72 508.966 452.774 508.599 452.821C508.238 452.862 507.945 452.898 507.72 452.928C507.175 452.999 506.666 453.114 506.193 453.274C505.725 453.428 505.347 453.661 505.057 453.975C504.772 454.283 504.63 454.703 504.63 455.236C504.63 455.964 504.9 456.514 505.438 456.887C505.983 457.254 506.672 457.438 507.507 457.438ZM529.832 459.284C528.554 459.284 527.453 458.982 526.53 458.379C525.607 457.775 524.896 456.943 524.399 455.884C523.902 454.824 523.653 453.614 523.653 452.253C523.653 450.868 523.908 449.646 524.417 448.586C524.932 447.521 525.648 446.689 526.565 446.092C527.489 445.488 528.566 445.186 529.797 445.186C530.756 445.186 531.62 445.364 532.389 445.719C533.159 446.074 533.789 446.571 534.28 447.21C534.771 447.849 535.076 448.595 535.195 449.447H533.099C532.94 448.826 532.585 448.276 532.034 447.796C531.49 447.311 530.756 447.068 529.832 447.068C529.016 447.068 528.299 447.281 527.684 447.707C527.074 448.128 526.598 448.722 526.255 449.492C525.917 450.255 525.749 451.152 525.749 452.182C525.749 453.235 525.914 454.153 526.246 454.934C526.583 455.715 527.057 456.322 527.666 456.754C528.282 457.186 529.004 457.402 529.832 457.402C530.377 457.402 530.871 457.307 531.315 457.118C531.759 456.929 532.135 456.656 532.442 456.301C532.75 455.946 532.969 455.52 533.099 455.023H535.195C535.076 455.828 534.783 456.553 534.316 457.198C533.854 457.837 533.241 458.346 532.478 458.725C531.72 459.098 530.839 459.284 529.832 459.284ZM543.797 459.284C542.566 459.284 541.486 458.991 540.557 458.405C539.634 457.819 538.911 457 538.391 455.946C537.876 454.893 537.618 453.661 537.618 452.253C537.618 450.832 537.876 449.592 538.391 448.533C538.911 447.474 539.634 446.651 540.557 446.065C541.486 445.479 542.566 445.186 543.797 445.186C545.028 445.186 546.105 445.479 547.029 446.065C547.958 446.651 548.68 447.474 549.195 448.533C549.716 449.592 549.976 450.832 549.976 452.253C549.976 453.661 549.716 454.893 549.195 455.946C548.68 457 547.958 457.819 547.029 458.405C546.105 458.991 545.028 459.284 543.797 459.284ZM543.797 457.402C544.732 457.402 545.502 457.162 546.105 456.683C546.709 456.203 547.156 455.573 547.446 454.792C547.736 454.011 547.881 453.164 547.881 452.253C547.881 451.341 547.736 450.492 547.446 449.705C547.156 448.918 546.709 448.281 546.105 447.796C545.502 447.311 544.732 447.068 543.797 447.068C542.862 447.068 542.093 447.311 541.489 447.796C540.885 448.281 540.438 448.918 540.148 449.705C539.858 450.492 539.713 451.341 539.713 452.253C539.713 453.164 539.858 454.011 540.148 454.792C540.438 455.573 540.885 456.203 541.489 456.683C542.093 457.162 542.862 457.402 543.797 457.402ZM555.27 450.797V459H553.174V445.364H555.199V447.494H555.376C555.696 446.802 556.181 446.246 556.832 445.825C557.483 445.399 558.324 445.186 559.353 445.186C560.277 445.186 561.085 445.375 561.777 445.754C562.47 446.127 563.008 446.695 563.393 447.459C563.778 448.216 563.97 449.175 563.97 450.335V459H561.875V450.477C561.875 449.406 561.597 448.571 561.04 447.974C560.484 447.37 559.72 447.068 558.75 447.068C558.081 447.068 557.483 447.213 556.956 447.503C556.436 447.793 556.024 448.216 555.722 448.773C555.421 449.329 555.27 450.004 555.27 450.797ZM573.729 445.364V447.139H566.662V445.364H573.729ZM568.722 442.097H570.817V455.094C570.817 455.686 570.903 456.129 571.074 456.425C571.252 456.715 571.477 456.911 571.749 457.011C572.027 457.106 572.32 457.153 572.628 457.153C572.859 457.153 573.048 457.142 573.196 457.118C573.344 457.088 573.463 457.065 573.551 457.047L573.977 458.929C573.835 458.982 573.637 459.036 573.383 459.089C573.128 459.148 572.806 459.178 572.415 459.178C571.823 459.178 571.243 459.05 570.675 458.796C570.113 458.541 569.645 458.154 569.272 457.633C568.905 457.112 568.722 456.455 568.722 455.662V442.097ZM580.893 459.32C580.029 459.32 579.245 459.157 578.541 458.831C577.836 458.5 577.277 458.023 576.863 457.402C576.448 456.775 576.241 456.017 576.241 455.129C576.241 454.348 576.395 453.715 576.703 453.229C577.011 452.738 577.422 452.353 577.937 452.075C578.452 451.797 579.02 451.59 579.642 451.454C580.269 451.312 580.899 451.199 581.532 451.116C582.361 451.01 583.033 450.93 583.548 450.877C584.069 450.818 584.447 450.72 584.684 450.584C584.927 450.448 585.048 450.211 585.048 449.874V449.803C585.048 448.927 584.808 448.246 584.329 447.761C583.856 447.275 583.136 447.033 582.172 447.033C581.171 447.033 580.387 447.252 579.819 447.69C579.251 448.128 578.851 448.595 578.621 449.092L576.632 448.382C576.987 447.554 577.461 446.908 578.052 446.447C578.65 445.979 579.301 445.654 580.006 445.47C580.716 445.281 581.414 445.186 582.101 445.186C582.539 445.186 583.042 445.239 583.61 445.346C584.184 445.446 584.737 445.657 585.27 445.976C585.809 446.296 586.256 446.778 586.611 447.423C586.966 448.068 587.143 448.933 587.143 450.016V459H585.048V457.153H584.942C584.8 457.449 584.563 457.766 584.231 458.103C583.9 458.441 583.459 458.728 582.909 458.964C582.358 459.201 581.686 459.32 580.893 459.32ZM581.213 457.438C582.041 457.438 582.74 457.275 583.308 456.949C583.882 456.624 584.314 456.203 584.604 455.689C584.9 455.174 585.048 454.632 585.048 454.064V452.146C584.959 452.253 584.764 452.35 584.462 452.439C584.166 452.522 583.823 452.596 583.432 452.661C583.048 452.72 582.672 452.774 582.305 452.821C581.944 452.862 581.651 452.898 581.426 452.928C580.881 452.999 580.372 453.114 579.899 453.274C579.431 453.428 579.053 453.661 578.763 453.975C578.479 454.283 578.336 454.703 578.336 455.236C578.336 455.964 578.606 456.514 579.144 456.887C579.689 457.254 580.378 457.438 581.213 457.438ZM596.507 459.284C595.229 459.284 594.128 458.982 593.205 458.379C592.281 457.775 591.571 456.943 591.074 455.884C590.577 454.824 590.328 453.614 590.328 452.253C590.328 450.868 590.583 449.646 591.092 448.586C591.607 447.521 592.323 446.689 593.24 446.092C594.163 445.488 595.241 445.186 596.472 445.186C597.43 445.186 598.295 445.364 599.064 445.719C599.833 446.074 600.464 446.571 600.955 447.21C601.446 447.849 601.751 448.595 601.869 449.447H599.774C599.614 448.826 599.259 448.276 598.709 447.796C598.164 447.311 597.43 447.068 596.507 447.068C595.69 447.068 594.974 447.281 594.359 447.707C593.749 448.128 593.273 448.722 592.929 449.492C592.592 450.255 592.423 451.152 592.423 452.182C592.423 453.235 592.589 454.153 592.921 454.934C593.258 455.715 593.731 456.322 594.341 456.754C594.957 457.186 595.679 457.402 596.507 457.402C597.052 457.402 597.546 457.307 597.99 457.118C598.434 456.929 598.81 456.656 599.117 456.301C599.425 455.946 599.644 455.52 599.774 455.023H601.869C601.751 455.828 601.458 456.553 600.991 457.198C600.529 457.837 599.916 458.346 599.153 458.725C598.395 459.098 597.513 459.284 596.507 459.284ZM610.863 445.364V447.139H603.796V445.364H610.863ZM605.856 442.097H607.951V455.094C607.951 455.686 608.037 456.129 608.208 456.425C608.386 456.715 608.611 456.911 608.883 457.011C609.161 457.106 609.454 457.153 609.762 457.153C609.993 457.153 610.182 457.142 610.33 457.118C610.478 457.088 610.596 457.065 610.685 457.047L611.111 458.929C610.969 458.982 610.771 459.036 610.516 459.089C610.262 459.148 609.939 459.178 609.549 459.178C608.957 459.178 608.377 459.05 607.809 458.796C607.246 458.541 606.779 458.154 606.406 457.633C606.039 457.112 605.856 456.455 605.856 455.662V442.097ZM626.976 445.364V447.139H619.909V445.364H626.976ZM621.969 442.097H624.064V455.094C624.064 455.686 624.15 456.129 624.321 456.425C624.499 456.715 624.724 456.911 624.996 457.011C625.274 457.106 625.567 457.153 625.875 457.153C626.106 457.153 626.295 457.142 626.443 457.118C626.591 457.088 626.71 457.065 626.798 457.047L627.225 458.929C627.082 458.982 626.884 459.036 626.63 459.089C626.375 459.148 626.053 459.178 625.662 459.178C625.07 459.178 624.49 459.05 623.922 458.796C623.36 458.541 622.892 458.154 622.519 457.633C622.152 457.112 621.969 456.455 621.969 455.662V442.097ZM635.521 459.284C634.29 459.284 633.21 458.991 632.28 458.405C631.357 457.819 630.635 457 630.114 455.946C629.599 454.893 629.342 453.661 629.342 452.253C629.342 450.832 629.599 449.592 630.114 448.533C630.635 447.474 631.357 446.651 632.28 446.065C633.21 445.479 634.29 445.186 635.521 445.186C636.752 445.186 637.829 445.479 638.752 446.065C639.682 446.651 640.404 447.474 640.919 448.533C641.439 449.592 641.7 450.832 641.7 452.253C641.7 453.661 641.439 454.893 640.919 455.946C640.404 457 639.682 457.819 638.752 458.405C637.829 458.991 636.752 459.284 635.521 459.284ZM635.521 457.402C636.456 457.402 637.225 457.162 637.829 456.683C638.433 456.203 638.88 455.573 639.17 454.792C639.46 454.011 639.605 453.164 639.605 452.253C639.605 451.341 639.46 450.492 639.17 449.705C638.88 448.918 638.433 448.281 637.829 447.796C637.225 447.311 636.456 447.068 635.521 447.068C634.586 447.068 633.816 447.311 633.213 447.796C632.609 448.281 632.162 448.918 631.872 449.705C631.582 450.492 631.437 451.341 631.437 452.253C631.437 453.164 631.582 454.011 631.872 454.792C632.162 455.573 632.609 456.203 633.213 456.683C633.816 457.162 634.586 457.402 635.521 457.402ZM661.588 448.418L659.706 448.95C659.588 448.637 659.413 448.332 659.183 448.036C658.958 447.734 658.65 447.485 658.259 447.29C657.869 447.095 657.368 446.997 656.759 446.997C655.924 446.997 655.229 447.19 654.673 447.574C654.122 447.953 653.847 448.435 653.847 449.021C653.847 449.542 654.036 449.953 654.415 450.255C654.794 450.557 655.386 450.809 656.191 451.01L658.215 451.507C659.434 451.803 660.343 452.256 660.94 452.865C661.538 453.469 661.837 454.247 661.837 455.2C661.837 455.982 661.612 456.68 661.162 457.295C660.718 457.911 660.097 458.396 659.298 458.751C658.499 459.107 657.57 459.284 656.51 459.284C655.119 459.284 653.968 458.982 653.057 458.379C652.145 457.775 651.568 456.893 651.326 455.733L653.314 455.236C653.504 455.97 653.862 456.52 654.388 456.887C654.921 457.254 655.617 457.438 656.475 457.438C657.451 457.438 658.227 457.23 658.801 456.816C659.381 456.396 659.671 455.893 659.671 455.307C659.671 454.833 659.505 454.437 659.174 454.117C658.842 453.792 658.333 453.549 657.647 453.389L655.374 452.857C654.125 452.561 653.208 452.102 652.622 451.48C652.042 450.853 651.752 450.069 651.752 449.128C651.752 448.358 651.968 447.678 652.4 447.086C652.838 446.494 653.433 446.029 654.184 445.692C654.942 445.355 655.8 445.186 656.759 445.186C658.108 445.186 659.168 445.482 659.937 446.074C660.712 446.666 661.263 447.447 661.588 448.418ZM670.921 445.364V447.139H663.854V445.364H670.921ZM665.914 442.097H668.009V455.094C668.009 455.686 668.095 456.129 668.267 456.425C668.444 456.715 668.669 456.911 668.941 457.011C669.22 457.106 669.513 457.153 669.82 457.153C670.051 457.153 670.241 457.142 670.389 457.118C670.537 457.088 670.655 457.065 670.744 457.047L671.17 458.929C671.028 458.982 670.83 459.036 670.575 459.089C670.321 459.148 669.998 459.178 669.607 459.178C669.015 459.178 668.435 459.05 667.867 458.796C667.305 458.541 666.837 458.154 666.465 457.633C666.098 457.112 665.914 456.455 665.914 455.662V442.097ZM678.086 459.32C677.222 459.32 676.437 459.157 675.733 458.831C675.029 458.5 674.469 458.023 674.055 457.402C673.641 456.775 673.434 456.017 673.434 455.129C673.434 454.348 673.588 453.715 673.895 453.229C674.203 452.738 674.614 452.353 675.129 452.075C675.644 451.797 676.212 451.59 676.834 451.454C677.461 451.312 678.092 451.199 678.725 451.116C679.553 451.01 680.225 450.93 680.74 450.877C681.261 450.818 681.64 450.72 681.877 450.584C682.119 450.448 682.241 450.211 682.241 449.874V449.803C682.241 448.927 682.001 448.246 681.521 447.761C681.048 447.275 680.329 447.033 679.364 447.033C678.364 447.033 677.58 447.252 677.011 447.69C676.443 448.128 676.044 448.595 675.813 449.092L673.824 448.382C674.179 447.554 674.653 446.908 675.245 446.447C675.843 445.979 676.494 445.654 677.198 445.47C677.908 445.281 678.607 445.186 679.293 445.186C679.731 445.186 680.234 445.239 680.802 445.346C681.376 445.446 681.93 445.657 682.462 445.976C683.001 446.296 683.448 446.778 683.803 447.423C684.158 448.068 684.336 448.933 684.336 450.016V459H682.241V457.153H682.134C681.992 457.449 681.755 457.766 681.424 458.103C681.092 458.441 680.651 458.728 680.101 458.964C679.551 459.201 678.879 459.32 678.086 459.32ZM678.405 457.438C679.234 457.438 679.932 457.275 680.5 456.949C681.075 456.624 681.507 456.203 681.797 455.689C682.093 455.174 682.241 454.632 682.241 454.064V452.146C682.152 452.253 681.956 452.35 681.655 452.439C681.359 452.522 681.015 452.596 680.625 452.661C680.24 452.72 679.864 452.774 679.497 452.821C679.136 452.862 678.843 452.898 678.618 452.928C678.074 452.999 677.565 453.114 677.091 453.274C676.624 453.428 676.245 453.661 675.955 453.975C675.671 454.283 675.529 454.703 675.529 455.236C675.529 455.964 675.798 456.514 676.337 456.887C676.881 457.254 677.571 457.438 678.405 457.438ZM688.16 459V445.364H690.184V447.423H690.326C690.575 446.749 691.024 446.201 691.675 445.781C692.326 445.361 693.06 445.151 693.877 445.151C694.031 445.151 694.223 445.154 694.454 445.159C694.685 445.165 694.86 445.174 694.978 445.186V447.317C694.907 447.299 694.744 447.272 694.49 447.237C694.241 447.195 693.978 447.175 693.7 447.175C693.037 447.175 692.445 447.314 691.924 447.592C691.409 447.864 691.001 448.243 690.699 448.728C690.403 449.208 690.255 449.755 690.255 450.371V459H688.16ZM704.246 445.364V447.139H697.18V445.364H704.246ZM699.239 442.097H701.335V455.094C701.335 455.686 701.42 456.129 701.592 456.425C701.77 456.715 701.994 456.911 702.267 457.011C702.545 457.106 702.838 457.153 703.146 457.153C703.376 457.153 703.566 457.142 703.714 457.118C703.862 457.088 703.98 457.065 704.069 457.047L704.495 458.929C704.353 458.982 704.155 459.036 703.9 459.089C703.646 459.148 703.323 459.178 702.933 459.178C702.341 459.178 701.761 459.05 701.192 458.796C700.63 458.541 700.163 458.154 699.79 457.633C699.423 457.112 699.239 456.455 699.239 455.662V442.097Z" fill="black" fill-opacity="0.79"/>
<path d="M341.146 426L333.788 399.091H337.099L342.723 421.007H342.986L348.714 399.091H352.393L358.122 421.007H358.385L364.009 399.091H367.32L359.962 426H356.598L350.659 404.557H350.449L344.51 426H341.146ZM377.542 426.42C375.597 426.42 373.92 425.991 372.51 425.133C371.108 424.266 370.026 423.057 369.264 421.506C368.511 419.947 368.134 418.134 368.134 416.067C368.134 414 368.511 412.178 369.264 410.601C370.026 409.015 371.086 407.78 372.444 406.896C373.81 406.002 375.405 405.555 377.227 405.555C378.278 405.555 379.316 405.731 380.341 406.081C381.365 406.431 382.298 407.001 383.139 407.789C383.98 408.569 384.65 409.602 385.15 410.89C385.649 412.178 385.898 413.763 385.898 415.646V416.96H370.342V414.28H382.745C382.745 413.141 382.517 412.125 382.062 411.232C381.615 410.338 380.976 409.633 380.143 409.116C379.32 408.599 378.348 408.341 377.227 408.341C375.991 408.341 374.923 408.647 374.021 409.261C373.127 409.865 372.44 410.653 371.958 411.626C371.476 412.598 371.235 413.64 371.235 414.753V416.54C371.235 418.064 371.498 419.356 372.023 420.416C372.558 421.467 373.298 422.268 374.244 422.82C375.19 423.363 376.289 423.635 377.542 423.635C378.357 423.635 379.092 423.521 379.749 423.293C380.415 423.057 380.989 422.706 381.471 422.242C381.952 421.769 382.325 421.182 382.587 420.482L385.583 421.322C385.268 422.339 384.738 423.232 383.993 424.003C383.249 424.765 382.329 425.361 381.234 425.79C380.139 426.21 378.908 426.42 377.542 426.42ZM393.716 399.091V426H390.615V399.091H393.716ZM407.595 426.42C405.703 426.42 404.073 425.974 402.707 425.08C401.34 424.187 400.289 422.956 399.553 421.388C398.818 419.82 398.45 418.029 398.45 416.014C398.45 413.964 398.826 412.156 399.58 410.588C400.342 409.011 401.402 407.78 402.759 406.896C404.126 406.002 405.72 405.555 407.542 405.555C408.961 405.555 410.24 405.818 411.379 406.344C412.517 406.869 413.45 407.605 414.177 408.551C414.904 409.497 415.355 410.601 415.531 411.862H412.43C412.193 410.942 411.668 410.128 410.853 409.418C410.047 408.7 408.961 408.341 407.595 408.341C406.386 408.341 405.326 408.656 404.415 409.287C403.513 409.909 402.807 410.789 402.299 411.928C401.8 413.058 401.551 414.385 401.551 415.909C401.551 417.468 401.796 418.826 402.286 419.982C402.786 421.138 403.486 422.036 404.389 422.676C405.3 423.315 406.368 423.635 407.595 423.635C408.4 423.635 409.132 423.495 409.789 423.214C410.446 422.934 411.002 422.531 411.457 422.006C411.913 421.48 412.237 420.849 412.43 420.114H415.531C415.355 421.305 414.922 422.378 414.23 423.333C413.547 424.279 412.64 425.032 411.51 425.593C410.389 426.145 409.084 426.42 407.595 426.42ZM428.263 426.42C426.441 426.42 424.842 425.987 423.467 425.12C422.1 424.252 421.032 423.039 420.261 421.48C419.499 419.921 419.118 418.099 419.118 416.014C419.118 413.912 419.499 412.077 420.261 410.509C421.032 408.941 422.1 407.723 423.467 406.856C424.842 405.989 426.441 405.555 428.263 405.555C430.084 405.555 431.679 405.989 433.045 406.856C434.42 407.723 435.489 408.941 436.251 410.509C437.022 412.077 437.407 413.912 437.407 416.014C437.407 418.099 437.022 419.921 436.251 421.48C435.489 423.039 434.42 424.252 433.045 425.12C431.679 425.987 430.084 426.42 428.263 426.42ZM428.263 423.635C429.647 423.635 430.785 423.28 431.679 422.571C432.572 421.861 433.234 420.928 433.663 419.772C434.092 418.616 434.307 417.363 434.307 416.014C434.307 414.665 434.092 413.408 433.663 412.243C433.234 411.078 432.572 410.137 431.679 409.418C430.785 408.7 429.647 408.341 428.263 408.341C426.879 408.341 425.74 408.7 424.846 409.418C423.953 410.137 423.292 411.078 422.862 412.243C422.433 413.408 422.218 414.665 422.218 416.014C422.218 417.363 422.433 418.616 422.862 419.772C423.292 420.928 423.953 421.861 424.846 422.571C425.74 423.28 426.879 423.635 428.263 423.635ZM442.141 426V405.818H445.137V408.972H445.399C445.82 407.894 446.499 407.058 447.436 406.462C448.373 405.858 449.499 405.555 450.813 405.555C452.144 405.555 453.252 405.858 454.137 406.462C455.03 407.058 455.727 407.894 456.226 408.972H456.436C456.953 407.929 457.728 407.101 458.762 406.488C459.796 405.866 461.035 405.555 462.48 405.555C464.285 405.555 465.761 406.12 466.908 407.25C468.056 408.372 468.629 410.119 468.629 412.493V426H465.529V412.493C465.529 411.004 465.121 409.94 464.307 409.3C463.492 408.661 462.533 408.341 461.429 408.341C460.01 408.341 458.911 408.77 458.131 409.629C457.352 410.478 456.962 411.556 456.962 412.861V426H453.808V412.178C453.808 411.03 453.436 410.106 452.692 409.405C451.947 408.696 450.988 408.341 449.814 408.341C449.008 408.341 448.255 408.556 447.554 408.985C446.862 409.414 446.302 410.01 445.872 410.772C445.452 411.525 445.242 412.397 445.242 413.386V426H442.141ZM482.761 426.42C480.816 426.42 479.139 425.991 477.728 425.133C476.327 424.266 475.245 423.057 474.483 421.506C473.73 419.947 473.353 418.134 473.353 416.067C473.353 414 473.73 412.178 474.483 410.601C475.245 409.015 476.305 407.78 477.663 406.896C479.029 406.002 480.623 405.555 482.445 405.555C483.496 405.555 484.534 405.731 485.559 406.081C486.584 406.431 487.517 407.001 488.358 407.789C489.199 408.569 489.869 409.602 490.368 410.89C490.868 412.178 491.117 413.763 491.117 415.646V416.96H475.56V414.28H487.964C487.964 413.141 487.736 412.125 487.281 411.232C486.834 410.338 486.194 409.633 485.362 409.116C484.539 408.599 483.567 408.341 482.445 408.341C481.21 408.341 480.142 408.647 479.239 409.261C478.346 409.865 477.658 410.653 477.176 411.626C476.695 412.598 476.454 413.64 476.454 414.753V416.54C476.454 418.064 476.717 419.356 477.242 420.416C477.777 421.467 478.517 422.268 479.463 422.82C480.409 423.363 481.508 423.635 482.761 423.635C483.575 423.635 484.311 423.521 484.968 423.293C485.634 423.057 486.208 422.706 486.689 422.242C487.171 421.769 487.543 421.182 487.806 420.482L490.802 421.322C490.487 422.339 489.957 423.232 489.212 424.003C488.467 424.765 487.548 425.361 486.453 425.79C485.358 426.21 484.127 426.42 482.761 426.42ZM515.017 405.818V408.446H504.559V405.818H515.017ZM507.607 400.983H510.708V420.219C510.708 421.095 510.835 421.752 511.089 422.19C511.352 422.619 511.684 422.908 512.087 423.057C512.499 423.197 512.933 423.267 513.388 423.267C513.73 423.267 514.01 423.25 514.229 423.214C514.448 423.171 514.623 423.136 514.755 423.109L515.385 425.895C515.175 425.974 514.882 426.053 514.505 426.131C514.128 426.219 513.651 426.263 513.073 426.263C512.197 426.263 511.338 426.074 510.498 425.698C509.665 425.321 508.973 424.747 508.422 423.977C507.878 423.206 507.607 422.233 507.607 421.06V400.983ZM527.664 426.42C525.842 426.42 524.243 425.987 522.868 425.12C521.502 424.252 520.433 423.039 519.662 421.48C518.9 419.921 518.519 418.099 518.519 416.014C518.519 413.912 518.9 412.077 519.662 410.509C520.433 408.941 521.502 407.723 522.868 406.856C524.243 405.989 525.842 405.555 527.664 405.555C529.486 405.555 531.08 405.989 532.447 406.856C533.822 407.723 534.89 408.941 535.653 410.509C536.423 412.077 536.809 413.912 536.809 416.014C536.809 418.099 536.423 419.921 535.653 421.48C534.89 423.039 533.822 424.252 532.447 425.12C531.08 425.987 529.486 426.42 527.664 426.42ZM527.664 423.635C529.048 423.635 530.187 423.28 531.08 422.571C531.974 421.861 532.635 420.928 533.064 419.772C533.493 418.616 533.708 417.363 533.708 416.014C533.708 414.665 533.493 413.408 533.064 412.243C532.635 411.078 531.974 410.137 531.08 409.418C530.187 408.7 529.048 408.341 527.664 408.341C526.28 408.341 525.141 408.7 524.248 409.418C523.354 410.137 522.693 411.078 522.264 412.243C521.834 413.408 521.62 414.665 521.62 416.014C521.62 417.363 521.834 418.616 522.264 419.772C522.693 420.928 523.354 421.861 524.248 422.571C525.141 423.28 526.28 423.635 527.664 423.635ZM552.369 399.091H556.258L565.403 421.428H565.718L574.863 399.091H578.752V426H575.704V405.555H575.441L567.032 426H564.089L555.68 405.555H555.417V426H552.369V399.091ZM593.327 426.42C591.382 426.42 589.705 425.991 588.295 425.133C586.893 424.266 585.811 423.057 585.049 421.506C584.296 419.947 583.919 418.134 583.919 416.067C583.919 414 584.296 412.178 585.049 410.601C585.811 409.015 586.871 407.78 588.229 406.896C589.596 406.002 591.19 405.555 593.012 405.555C594.063 405.555 595.101 405.731 596.126 406.081C597.151 406.431 598.083 407.001 598.924 407.789C599.765 408.569 600.435 409.602 600.935 410.89C601.434 412.178 601.684 413.763 601.684 415.646V416.96H586.127V414.28H598.53C598.53 413.141 598.302 412.125 597.847 411.232C597.4 410.338 596.761 409.633 595.929 409.116C595.105 408.599 594.133 408.341 593.012 408.341C591.777 408.341 590.708 408.647 589.806 409.261C588.912 409.865 588.225 410.653 587.743 411.626C587.261 412.598 587.02 413.64 587.02 414.753V416.54C587.02 418.064 587.283 419.356 587.809 420.416C588.343 421.467 589.083 422.268 590.029 422.82C590.975 423.363 592.074 423.635 593.327 423.635C594.142 423.635 594.877 423.521 595.534 423.293C596.2 423.057 596.774 422.706 597.256 422.242C597.737 421.769 598.11 421.182 598.373 420.482L601.368 421.322C601.053 422.339 600.523 423.232 599.778 424.003C599.034 424.765 598.114 425.361 597.019 425.79C595.924 426.21 594.694 426.42 593.327 426.42ZM620.696 410.338L617.911 411.126C617.735 410.662 617.477 410.211 617.135 409.773C616.802 409.326 616.347 408.958 615.769 408.669C615.191 408.38 614.451 408.236 613.548 408.236C612.313 408.236 611.284 408.52 610.461 409.09C609.646 409.65 609.239 410.364 609.239 411.232C609.239 412.002 609.519 412.611 610.08 413.058C610.64 413.505 611.516 413.877 612.707 414.175L615.703 414.911C617.508 415.348 618.852 416.019 619.737 416.921C620.622 417.814 621.064 418.966 621.064 420.376C621.064 421.533 620.731 422.566 620.065 423.477C619.408 424.388 618.489 425.107 617.306 425.632C616.124 426.158 614.748 426.42 613.18 426.42C611.122 426.42 609.418 425.974 608.069 425.08C606.72 424.187 605.866 422.882 605.507 421.165L608.45 420.429C608.731 421.515 609.261 422.33 610.04 422.873C610.828 423.416 611.858 423.688 613.128 423.688C614.573 423.688 615.721 423.381 616.57 422.768C617.429 422.146 617.858 421.401 617.858 420.534C617.858 419.833 617.613 419.246 617.122 418.773C616.632 418.292 615.878 417.933 614.862 417.696L611.499 416.908C609.65 416.47 608.293 415.791 607.425 414.871C606.567 413.943 606.138 412.782 606.138 411.389C606.138 410.25 606.458 409.243 607.097 408.367C607.745 407.491 608.625 406.804 609.738 406.304C610.859 405.805 612.129 405.555 613.548 405.555C615.545 405.555 617.113 405.993 618.252 406.869C619.4 407.745 620.214 408.902 620.696 410.338ZM640.027 410.338L637.242 411.126C637.066 410.662 636.808 410.211 636.466 409.773C636.133 409.326 635.678 408.958 635.1 408.669C634.522 408.38 633.782 408.236 632.879 408.236C631.644 408.236 630.615 408.52 629.792 409.09C628.977 409.65 628.57 410.364 628.57 411.232C628.57 412.002 628.85 412.611 629.411 413.058C629.971 413.505 630.847 413.877 632.038 414.175L635.034 414.911C636.839 415.348 638.183 416.019 639.068 416.921C639.953 417.814 640.395 418.966 640.395 420.376C640.395 421.533 640.062 422.566 639.396 423.477C638.739 424.388 637.82 425.107 636.637 425.632C635.455 426.158 634.079 426.42 632.511 426.42C630.453 426.42 628.749 425.974 627.4 425.08C626.051 424.187 625.197 422.882 624.838 421.165L627.781 420.429C628.062 421.515 628.592 422.33 629.371 422.873C630.16 423.416 631.189 423.688 632.459 423.688C633.904 423.688 635.052 423.381 635.901 422.768C636.76 422.146 637.189 421.401 637.189 420.534C637.189 419.833 636.944 419.246 636.453 418.773C635.963 418.292 635.209 417.933 634.193 417.696L630.83 416.908C628.981 416.47 627.624 415.791 626.756 414.871C625.898 413.943 625.469 412.782 625.469 411.389C625.469 410.25 625.789 409.243 626.428 408.367C627.076 407.491 627.957 406.804 629.069 406.304C630.19 405.805 631.46 405.555 632.879 405.555C634.877 405.555 636.444 405.993 637.583 406.869C638.731 407.745 639.545 408.902 640.027 410.338ZM651.002 426.473C649.723 426.473 648.562 426.232 647.52 425.75C646.477 425.26 645.65 424.555 645.036 423.635C644.423 422.706 644.117 421.585 644.117 420.271C644.117 419.115 644.344 418.178 644.8 417.46C645.255 416.732 645.864 416.163 646.626 415.751C647.388 415.34 648.229 415.033 649.149 414.832C650.077 414.621 651.01 414.455 651.948 414.332C653.174 414.175 654.168 414.056 654.93 413.978C655.701 413.89 656.262 413.746 656.612 413.544C656.971 413.343 657.151 412.992 657.151 412.493V412.388C657.151 411.091 656.796 410.084 656.086 409.366C655.386 408.647 654.321 408.288 652.894 408.288C651.413 408.288 650.253 408.612 649.412 409.261C648.571 409.909 647.98 410.601 647.638 411.337L644.695 410.286C645.22 409.059 645.921 408.104 646.797 407.421C647.682 406.729 648.645 406.247 649.688 405.976C650.739 405.696 651.772 405.555 652.789 405.555C653.437 405.555 654.181 405.634 655.022 405.792C655.872 405.941 656.691 406.252 657.479 406.725C658.276 407.198 658.938 407.912 659.463 408.866C659.989 409.821 660.252 411.1 660.252 412.703V426H657.151V423.267H656.993C656.783 423.705 656.432 424.174 655.942 424.673C655.451 425.172 654.799 425.597 653.984 425.947C653.17 426.298 652.175 426.473 651.002 426.473ZM651.475 423.688C652.701 423.688 653.735 423.447 654.575 422.965C655.425 422.483 656.065 421.861 656.494 421.099C656.932 420.337 657.151 419.536 657.151 418.695V415.857C657.019 416.014 656.73 416.159 656.284 416.29C655.846 416.413 655.338 416.522 654.759 416.619C654.19 416.706 653.634 416.785 653.091 416.855C652.556 416.916 652.123 416.969 651.79 417.013C650.984 417.118 650.231 417.289 649.53 417.525C648.838 417.753 648.277 418.099 647.848 418.563C647.428 419.019 647.218 419.641 647.218 420.429C647.218 421.506 647.616 422.321 648.413 422.873C649.219 423.416 650.24 423.688 651.475 423.688ZM674.058 433.989C672.56 433.989 671.272 433.796 670.195 433.411C669.117 433.034 668.219 432.535 667.501 431.913C666.792 431.299 666.227 430.643 665.806 429.942L668.276 428.207C668.557 428.575 668.911 428.996 669.341 429.469C669.77 429.951 670.357 430.367 671.101 430.717C671.855 431.076 672.84 431.256 674.058 431.256C675.687 431.256 677.031 430.862 678.091 430.073C679.151 429.285 679.681 428.05 679.681 426.368V422.268H679.418C679.191 422.636 678.867 423.092 678.446 423.635C678.034 424.169 677.439 424.647 676.659 425.067C675.888 425.479 674.846 425.685 673.532 425.685C671.903 425.685 670.44 425.299 669.144 424.528C667.856 423.758 666.835 422.636 666.082 421.165C665.338 419.693 664.965 417.906 664.965 415.804C664.965 413.737 665.329 411.937 666.056 410.404C666.783 408.862 667.795 407.671 669.091 406.83C670.387 405.98 671.885 405.555 673.585 405.555C674.899 405.555 675.941 405.774 676.712 406.212C677.491 406.642 678.087 407.132 678.499 407.684C678.919 408.227 679.243 408.674 679.471 409.024H679.786V405.818H682.782V426.578C682.782 428.312 682.388 429.723 681.6 430.809C680.82 431.904 679.769 432.705 678.446 433.213C677.132 433.73 675.669 433.989 674.058 433.989ZM673.953 422.899C675.196 422.899 676.247 422.614 677.106 422.045C677.964 421.476 678.617 420.657 679.064 419.588C679.51 418.519 679.734 417.241 679.734 415.751C679.734 414.297 679.515 413.014 679.077 411.902C678.639 410.789 677.991 409.918 677.132 409.287C676.274 408.656 675.214 408.341 673.953 408.341C672.639 408.341 671.544 408.674 670.668 409.339C669.801 410.005 669.148 410.899 668.71 412.02C668.281 413.141 668.066 414.385 668.066 415.751C668.066 417.153 668.285 418.392 668.723 419.47C669.17 420.538 669.827 421.379 670.694 421.993C671.57 422.597 672.656 422.899 673.953 422.899ZM696.92 426.42C694.975 426.42 693.298 425.991 691.888 425.133C690.486 424.266 689.404 423.057 688.642 421.506C687.889 419.947 687.512 418.134 687.512 416.067C687.512 414 687.889 412.178 688.642 410.601C689.404 409.015 690.464 407.78 691.822 406.896C693.188 406.002 694.783 405.555 696.604 405.555C697.656 405.555 698.694 405.731 699.718 406.081C700.743 406.431 701.676 407.001 702.517 407.789C703.358 408.569 704.028 409.602 704.527 410.89C705.027 412.178 705.276 413.763 705.276 415.646V416.96H689.72V414.28H702.123C702.123 413.141 701.895 412.125 701.44 411.232C700.993 410.338 700.354 409.633 699.521 409.116C698.698 408.599 697.726 408.341 696.604 408.341C695.369 408.341 694.301 408.647 693.399 409.261C692.505 409.865 691.817 410.653 691.336 411.626C690.854 412.598 690.613 413.64 690.613 414.753V416.54C690.613 418.064 690.876 419.356 691.401 420.416C691.936 421.467 692.676 422.268 693.622 422.82C694.568 423.363 695.667 423.635 696.92 423.635C697.734 423.635 698.47 423.521 699.127 423.293C699.793 423.057 700.367 422.706 700.848 422.242C701.33 421.769 701.703 421.182 701.965 420.482L704.961 421.322C704.646 422.339 704.116 423.232 703.371 424.003C702.627 424.765 701.707 425.361 700.612 425.79C699.517 426.21 698.286 426.42 696.92 426.42ZM724.289 410.338L721.503 411.126C721.328 410.662 721.07 410.211 720.728 409.773C720.395 409.326 719.94 408.958 719.362 408.669C718.783 408.38 718.043 408.236 717.141 408.236C715.906 408.236 714.877 408.52 714.053 409.09C713.239 409.65 712.831 410.364 712.831 411.232C712.831 412.002 713.112 412.611 713.672 413.058C714.233 413.505 715.109 413.877 716.3 414.175L719.296 414.911C721.1 415.348 722.445 416.019 723.33 416.921C724.214 417.814 724.657 418.966 724.657 420.376C724.657 421.533 724.324 422.566 723.658 423.477C723.001 424.388 722.081 425.107 720.899 425.632C719.716 426.158 718.341 426.42 716.773 426.42C714.715 426.42 713.011 425.974 711.662 425.08C710.313 424.187 709.459 422.882 709.1 421.165L712.043 420.429C712.323 421.515 712.853 422.33 713.633 422.873C714.421 423.416 715.45 423.688 716.721 423.688C718.166 423.688 719.313 423.381 720.163 422.768C721.022 422.146 721.451 421.401 721.451 420.534C721.451 419.833 721.205 419.246 720.715 418.773C720.224 418.292 719.471 417.933 718.455 417.696L715.091 416.908C713.243 416.47 711.885 415.791 711.018 414.871C710.16 413.943 709.731 412.782 709.731 411.389C709.731 410.25 710.05 409.243 710.69 408.367C711.338 407.491 712.218 406.804 713.331 406.304C714.452 405.805 715.722 405.555 717.141 405.555C719.138 405.555 720.706 405.993 721.845 406.869C722.992 407.745 723.807 408.902 724.289 410.338Z" fill="#0147FF" fill-opacity="0.72"/>
<path d="M1103.66 633.754C1145.98 684.327 1153.78 748.469 1148.58 808.293C1143.38 868.118 1125.56 923.625 1083.25 950.146C1040.55 976.666 973.734 974.199 914.71 967.723C856.057 960.939 804.828 950.454 759.167 923.934C713.878 897.414 673.786 854.858 668.589 808.293C663.392 761.421 693.089 710.539 738.379 659.657C784.039 608.775 845.291 558.202 914.71 551.726C984.129 545.25 1061.34 582.872 1103.66 633.754Z" fill="#0147FF" fill-opacity="0.04"/>
<path d="M207.096 -211.904C255.866 -168.866 284.153 -116.809 302.197 -65.5723C320.73 -14.7454 328.533 35.2616 338.775 96.7457C349.017 158.23 362.185 231.191 327.558 276.689C293.419 322.187 211.973 339.403 137.842 338.993C64.1993 338.583 -1.6404 320.138 -73.8202 308.251C-146 295.954 -225.008 289.806 -287.433 257.014C-350.347 223.813 -397.166 163.558 -390.338 105.763C-383.998 47.9683 -324.011 -7.36734 -281.581 -62.703C-239.151 -118.039 -214.278 -173.374 -166.483 -216.413C-118.689 -259.452 -48.4597 -290.194 20.7939 -288.964C90.0474 -287.735 158.813 -254.533 207.096 -211.904Z" fill="#0147FF" fill-opacity="0.04"/>
<path d="M872.6 118.6C887.1 128.3 899.5 140.8 906.8 155.9C914.1 171 916.2 188.7 913.8 205.8C911.4 222.9 904.5 239.4 893.2 251.6C881.9 263.7 866.1 271.4 849.6 276C833 280.5 815.8 281.8 800.1 277.4C784.4 273 770.3 262.8 758.9 250.1C747.5 237.3 738.9 222 737 205.9C735 189.8 739.8 173 747.6 158.4C755.4 143.7 766.3 131.1 779.7 120.9C793.1 110.7 809.1 102.9 825.3 102.4C841.5 102 858.1 108.9 872.6 118.6Z" fill="#0147FF" fill-opacity="0.04"/>
<path d="M218.5 561.6C232.8 570.8 245.3 582.8 250.8 597.3C256.3 611.8 254.8 628.7 250.7 644.2C246.7 659.6 240.2 673.5 230.5 684.6C220.8 695.8 207.9 704.1 193.6 709C179.3 714 163.5 715.4 149 711.5C134.6 707.6 121.6 698.3 109.3 686.8C97 675.4 85.5 661.7 81.8 646C78 630.3 82.1 612.6 91.1 598.8C100.1 585.1 114.1 575.3 128.4 566.1C142.7 556.9 157.3 548.3 172.7 547.2C188.1 546.1 204.2 552.4 218.5 561.6Z" fill="#0147FF" fill-opacity="0.04"/>
</g>
<defs>
<clipPath id="clip0_2_2">
<rect width="1062" height="781" fill="white"/>
</clipPath>
</defs>
</svg>
